<?xml version="1.0" standalone="no"?>
<!DOCTYPE svg PUBLIC "-//W3C//DTD SVG 20010904//EN"
 "http://www.w3.org/TR/2001/REC-SVG-20010904/DTD/svg10.dtd">
<svg version="1.0" xmlns="http://www.w3.org/2000/svg"
 width="1118.000000pt" height="1118.000000pt" viewBox="0 0 1118.000000 1118.000000"
 preserveAspectRatio="xMidYMid meet">
<metadata>
Created by potrace 1.14, written by Peter Selinger 2001-2017
</metadata>
<g transform="translate(0.000000,1118.000000) scale(0.100000,-0.100000)"
fill="#000000" stroke="none">
<path d="M3418 10665 c-2 -1 -26 -5 -54 -9 -74 -8 -216 -52 -285 -86 -206
-104 -373 -278 -487 -505 -62 -125 -137 -359 -156 -490 -4 -22 -8 -47 -11 -55
-8 -31 -22 -144 -34 -290 -8 -96 -6 -597 3 -637 2 -11 7 -59 11 -105 3 -45 8
-90 10 -98 2 -8 7 -44 10 -80 4 -36 8 -76 10 -90 2 -14 13 -85 25 -158 11 -73
30 -181 41 -240 12 -59 23 -118 25 -132 3 -14 9 -41 14 -60 17 -63 13 -77 -22
-84 -18 -3 -44 -8 -58 -11 -43 -8 -120 -26 -280 -65 -813 -201 -1435 -496
-1790 -850 -111 -111 -122 -124 -188 -222 -83 -123 -150 -276 -166 -382 -4
-21 -9 -48 -11 -60 -12 -47 -11 -184 1 -268 65 -434 412 -837 1034 -1201 181
-106 239 -131 300 -131 123 1 210 89 210 214 0 92 -47 153 -167 215 -32 17
-81 45 -110 63 -29 17 -55 32 -58 32 -12 0 -262 170 -327 223 -303 244 -454
474 -463 703 -13 356 349 705 1025 987 125 52 339 132 385 144 11 3 55 16 98
29 156 48 464 127 577 147 14 3 36 8 50 11 77 18 79 18 91 -27 82 -317 310
-988 452 -1330 l24 -59 -64 -121 c-148 -283 -313 -629 -420 -881 -229 -541
-394 -1030 -502 -1491 -45 -196 -69 -318 -85 -435 -3 -25 -8 -54 -10 -65 -41
-220 -51 -626 -21 -885 26 -233 116 -490 231 -661 53 -78 202 -234 234 -244
11 -3 20 -10 20 -14 0 -14 174 -99 255 -125 289 -92 643 -59 1035 96 128 51
300 134 410 197 30 18 63 35 73 38 9 3 17 9 17 14 0 5 5 9 11 9 13 0 166 98
299 191 116 82 144 123 145 214 0 48 -6 69 -28 107 -47 80 -152 123 -240 97
-16 -5 -100 -55 -186 -112 -504 -335 -885 -482 -1221 -473 -183 6 -303 57
-414 177 -115 124 -192 325 -222 579 -15 124 -8 527 11 630 3 14 7 50 10 80 3
30 10 78 15 105 5 28 11 66 14 86 9 62 55 269 87 394 17 66 35 138 40 160 30
123 163 528 247 750 97 256 242 593 385 889 l91 188 20 -43 c11 -24 88 -183
171 -354 134 -274 188 -378 332 -645 89 -164 316 -550 385 -653 21 -32 38 -60
38 -62 0 -5 214 -334 265 -407 265 -382 582 -798 774 -1014 242 -272 393 -429
591 -614 542 -507 1087 -829 1515 -896 260 -40 469 -16 660 78 60 30 126 67
135 78 3 3 23 18 44 34 142 106 272 291 361 511 34 85 97 307 109 385 3 19 8
45 10 57 3 12 7 46 10 75 4 29 8 69 11 88 15 123 22 517 11 655 -2 22 -6 85
-10 140 -4 55 -9 107 -11 115 -2 8 -7 44 -10 80 -7 73 -39 294 -60 415 -30
170 -110 549 -120 565 -2 3 -6 17 -9 31 -2 13 -9 42 -14 64 -6 22 -18 69 -27
105 -9 36 -20 79 -25 95 -5 17 -24 80 -41 140 -60 207 -146 470 -257 780 -89
251 -294 744 -423 1022 -104 225 -130 272 -163 301 -136 119 -351 22 -349
-158 1 -56 5 -68 107 -283 44 -94 153 -340 201 -457 15 -36 33 -78 40 -95 8
-16 28 -66 45 -110 17 -44 35 -89 40 -100 32 -67 179 -481 260 -730 68 -211
174 -577 194 -676 3 -13 15 -62 26 -109 24 -95 27 -111 63 -295 35 -178 56
-300 73 -425 10 -78 12 -98 19 -160 3 -30 8 -68 10 -85 24 -195 24 -697 0
-823 -1 -9 -6 -39 -9 -67 -38 -290 -144 -544 -283 -677 -106 -102 -217 -147
-373 -153 -157 -6 -321 31 -500 112 -41 19 -76 34 -77 34 -2 0 -51 27 -110 61
-369 208 -794 565 -1166 977 -56 62 -107 119 -114 126 -11 11 -122 141 -175
203 -209 249 -581 755 -763 1039 -353 551 -587 963 -861 1520 -68 139 -124
255 -124 257 0 4 -36 83 -106 234 -19 40 -34 75 -34 77 0 2 -12 30 -26 60
l-25 56 57 102 c233 413 604 992 854 1332 124 170 156 211 167 221 20 17 663
10 1018 -11 211 -13 242 -15 310 -20 39 -3 90 -8 115 -10 25 -3 77 -7 115 -10
39 -3 86 -8 105 -10 19 -2 62 -7 95 -10 72 -7 138 -14 185 -21 19 -3 58 -7 85
-10 88 -10 187 -23 225 -29 14 -2 45 -7 70 -10 51 -7 48 -7 220 -35 158 -26
228 -39 260 -45 14 -3 41 -8 60 -11 50 -9 48 -9 235 -49 94 -20 177 -38 185
-40 136 -28 550 -142 767 -211 156 -49 463 -158 518 -184 11 -5 65 -28 120
-51 247 -102 542 -258 734 -388 206 -139 415 -333 502 -466 179 -272 176 -503
-11 -755 -157 -210 -481 -427 -890 -596 -63 -26 -129 -57 -147 -70 -158 -117
-71 -379 126 -377 68 0 189 47 429 165 479 236 783 497 940 808 84 166 113
294 108 475 -8 300 -138 565 -416 846 -67 67 -227 202 -295 249 -27 18 -52 36
-55 40 -5 5 -47 33 -170 112 -120 76 -361 204 -545 288 -121 56 -484 202 -530
214 -5 2 -17 6 -25 9 -149 58 -727 230 -880 262 -8 2 -35 8 -60 15 -25 7 -52
14 -60 15 -8 2 -53 12 -100 24 -84 19 -464 97 -529 107 -18 3 -43 8 -55 10
-11 2 -37 7 -56 10 -19 2 -55 9 -80 14 -55 11 -100 18 -160 25 -25 3 -56 7
-70 10 -14 3 -45 8 -70 11 -25 3 -56 7 -70 10 -14 2 -49 6 -78 10 -29 3 -62 7
-73 9 -11 2 -48 7 -82 10 -34 3 -73 8 -87 10 -27 4 -221 25 -285 31 -22 1 -69
6 -105 9 -36 4 -87 8 -115 10 -27 2 -86 6 -130 10 -300 21 -558 33 -802 35
-170 2 -166 -1 -106 66 15 17 44 51 63 75 30 38 83 100 115 135 6 6 37 42 70
80 316 363 838 871 1115 1084 25 19 47 37 50 40 3 3 25 21 50 40 25 19 50 38
55 43 218 175 599 407 848 516 93 40 297 114 297 106 0 -2 21 3 48 11 72 22
144 29 287 28 112 -1 140 -5 202 -27 173 -61 287 -184 375 -402 13 -34 47
-168 53 -215 4 -24 8 -47 10 -50 7 -11 19 -227 18 -335 0 -191 -31 -489 -68
-655 -3 -14 -8 -52 -11 -86 -13 -131 80 -235 210 -235 82 0 149 40 186 111 16
31 44 156 56 249 4 34 10 72 19 121 21 121 30 279 30 520 -1 261 -2 279 -39
490 -7 45 -35 144 -60 215 -104 304 -291 521 -550 640 -216 100 -512 118 -806
50 -14 -3 -34 -8 -45 -10 -165 -35 -491 -172 -708 -298 -54 -31 -103 -57 -108
-57 -5 0 -9 -4 -9 -10 0 -5 -5 -10 -11 -10 -27 0 -526 -351 -633 -445 -6 -6
-36 -30 -66 -55 -30 -25 -57 -47 -60 -50 -3 -3 -21 -18 -40 -34 -34 -28 -122
-106 -244 -216 -34 -30 -167 -160 -296 -290 -212 -212 -319 -325 -451 -475
-24 -27 -62 -70 -85 -95 -33 -37 -192 -226 -254 -303 -8 -10 -23 -28 -33 -39
-9 -12 -54 -68 -99 -125 -45 -56 -86 -103 -92 -104 -34 -2 -129 -7 -261 -14
-164 -8 -195 -9 -330 -20 -149 -11 -287 -23 -340 -30 -16 -2 -55 -7 -85 -10
-30 -3 -66 -8 -80 -10 -14 -2 -54 -6 -90 -10 -36 -3 -72 -8 -80 -10 -8 -2 -40
-7 -70 -10 -30 -4 -75 -10 -99 -15 -59 -11 -67 -6 -76 43 -4 23 -9 47 -10 52
-8 30 -74 383 -80 430 -2 11 -8 58 -15 105 -7 47 -14 103 -16 125 -2 22 -6 54
-8 70 -21 130 -29 680 -12 820 14 118 15 129 22 170 9 59 50 222 74 290 85
241 236 412 414 467 152 48 397 23 583 -58 17 -8 34 -14 38 -14 3 0 59 -26
123 -58 192 -96 368 -211 577 -376 123 -97 151 -110 227 -103 149 12 234 157
174 298 -20 48 -97 114 -346 298 -35 26 -47 34 -189 126 -235 151 -529 273
-771 320 -72 14 -322 29 -332 20z m673 -3431 c-163 -229 -405 -599 -591 -907
l-84 -138 -38 103 c-122 331 -303 906 -290 920 4 3 31 9 61 13 30 4 61 8 70
10 9 1 43 6 76 9 33 4 71 9 85 11 36 5 194 23 265 30 33 4 78 8 100 10 44 5
130 11 275 21 52 3 96 7 97 8 1 1 11 2 21 2 15 0 6 -19 -47 -92z"/>
<path d="M5540 6138 c-152 -27 -252 -79 -356 -183 -121 -120 -181 -255 -190
-424 -5 -100 25 -231 73 -324 48 -92 164 -211 253 -260 258 -141 562 -97 768
112 72 73 119 152 154 255 24 73 26 94 24 201 -2 91 -8 136 -24 185 -44 134
-148 269 -262 342 -126 80 -307 120 -440 96z"/>
</g>
</svg>
